<svg xmlns="http://www.w3.org/2000/svg" width="137" height="135" viewBox="0 0 137 135">
<g>
<path d="M 74.21,86.10 L 74.44,86.28 L 74.96,86.93 L 75.88,88.30 L 76.53,89.35 L 78.29,91.60 L 79.25,92.74 L 81.52,95.09 L 82.71,96.27 L 85.36,98.62 L 86.72,99.79 L 89.63,102.06 L 91.10,103.17 L 94.13,105.25 L 95.65,106.26 L 98.68,108.06 L 100.18,108.91 L 103.08,110.33 L 107.14,111.93 L 107.88,112.16 L 108.97,112.63 L 109.46,112.88 L 110.15,113.45 L 110.46,113.76 L 110.85,114.55 L 111.23,116.09 L 111.35,116.91 L 111.37,118.30 L 111.35,118.60 L 111.27,119.05 L 111.08,119.42 L 111.00,119.46 L 110.44,119.40 L 110.11,119.35 L 109.13,119.12 L 108.08,118.85 L 105.26,117.94 L 103.29,117.26 L 99.29,115.54 L 97.30,114.63 L 93.43,112.54 L 91.53,111.45 L 87.97,109.10 L 83.20,105.39 L 82.49,104.77 L 81.12,103.68 L 80.45,103.17 L 79.27,102.37 L 78.72,102.01 L 77.86,101.58 L 77.09,101.44 L 76.96,101.52 L 76.67,101.91 L 76.53,102.13 L 76.24,102.73 L 75.50,105.01 L 75.29,105.96 L 74.81,107.12 L 74.57,107.59 L 74.05,107.89 L 73.79,107.94 L 73.28,107.49 L 73.03,107.18 L 72.57,106.11 L 72.35,105.50 L 71.98,103.92 L 71.81,103.08 L 71.58,101.11 L 71.48,100.08 L 71.43,97.85 L 71.60,94.33 L 71.71,93.16 L 71.93,91.20 L 72.05,90.28 L 72.28,88.82 L 72.39,88.15 L 72.65,87.16 L 72.78,86.72 L 73.08,86.17 L 73.23,85.95 L 73.59,85.83 L 73.78,85.82 M 27.08,16.21 L 30.24,16.93 L 32.11,17.48 L 36.00,19.00 L 37.96,19.83 L 41.89,21.82 L 43.84,22.86 L 47.60,25.21 L 52.84,29.02 L 53.72,29.72 L 55.33,30.98 L 56.11,31.58 L 57.42,32.54 L 58.02,32.98 L 58.88,33.54 L 59.50,33.82 L 59.54,33.78 L 59.73,33.42 L 59.85,33.20 L 60.15,32.57 L 61.29,30.00 L 62.77,26.50 L 64.44,30.36 L 64.80,31.18 L 65.27,32.60 L 65.46,33.30 L 65.62,34.76 L 65.67,35.53 L 65.54,37.40 L 65.06,41.05 L 64.91,41.99 L 64.65,43.75 L 64.52,44.59 L 64.31,46.04 L 64.22,46.71 L 64.08,47.69 L 64.00,48.44 L 64.00,48.85 L 63.64,49.11 L 63.42,49.15 L 62.72,48.75 L 62.34,48.48 L 61.44,47.52 L 60.99,46.98 L 60.05,45.58 L 59.41,44.55 L 57.63,42.35 L 56.67,41.23 L 54.35,38.92 L 53.13,37.76 L 50.40,35.44 L 49.00,34.30 L 46.00,32.08 L 44.49,30.99 L 41.38,28.98 L 39.82,28.00 L 36.73,26.29 L 35.20,25.48 L 32.28,24.17 L 28.24,22.77 L 27.77,22.65 L 26.86,21.71 L 26.42,21.16 L 25.71,19.75 L 25.41,19.03 L 25.13,17.66 L 25.44,16.22 L 25.52,16.15 L 25.99,16.11 L 26.27,16.11 Z" fill="rgba(34,154,210,1)"/>
<path d="M 64.17,87.62 L 64.26,88.02 L 64.51,89.25 L 64.65,89.93 L 64.95,91.56 L 65.90,97.00 L 66.05,97.95 L 66.58,100.09 L 66.87,101.18 L 67.65,103.53 L 68.48,105.92 L 70.69,110.93 L 71.85,113.41 L 74.47,118.03 L 75.14,119.13 L 76.48,121.12 L 78.46,123.70 L 79.17,124.53 L 80.20,125.87 L 80.65,126.50 L 81.20,127.56 L 81.42,128.07 L 81.57,129.01 L 81.42,130.46 L 81.24,131.16 L 80.74,132.41 L 79.99,133.51 L 79.88,133.57 L 79.28,133.26 L 78.93,133.04 L 77.95,132.23 L 77.42,131.77 L 76.17,130.58 L 75.53,129.94 L 74.15,128.47 L 73.54,127.80 L 72.18,126.08 L 71.49,125.16 L 70.04,123.05 L 68.58,120.87 L 65.75,116.06 L 65.08,114.88 L 63.88,112.59 L 63.31,111.47 L 62.37,109.45 L 61.94,108.48 L 61.36,106.88 L 60.98,105.13 L 60.98,104.68 L 60.70,103.54 L 60.03,102.02 L 59.84,101.71 L 59.43,101.38 L 59.22,101.27 L 58.68,101.37 L 58.38,101.48 L 57.57,102.06 L 55.92,103.52 L 52.74,106.50 L 53.24,101.83 L 53.34,100.92 L 53.71,99.28 L 53.93,98.47 L 54.64,96.85 L 55.05,96.02 L 56.22,94.19 L 58.62,90.96 L 63.50,84.74 M 58.16,106.71 L 58.45,106.86 L 58.80,107.75 L 59.00,109.99 L 59.00,110.35 L 59.12,111.38 L 59.20,111.93 L 59.46,113.22 L 60.57,117.25 L 60.93,118.31 L 61.38,119.83 L 61.56,120.52 L 61.64,121.54 L 61.63,122.03 L 61.33,122.90 L 60.45,124.43 L 59.99,125.14 L 59.02,126.24 L 58.79,126.48 L 58.39,126.80 L 57.93,127.00 L 57.81,127.00 L 57.44,126.48 L 57.23,126.14 L 56.73,125.06 L 56.47,124.46 L 55.90,122.96 L 55.61,122.17 L 55.04,120.39 L 54.72,119.35 L 54.19,117.58 L 53.95,116.74 L 53.59,115.33 L 53.44,114.66 L 53.24,113.55 L 53.17,113.03 L 53.15,112.14 L 53.17,111.30 L 53.72,110.03 L 55.32,108.17 L 55.99,107.54 L 57.02,106.86 L 57.49,106.62 M 57.88,1.43 L 58.25,1.70 L 59.20,2.61 L 59.70,3.12 L 60.86,4.41 L 61.45,5.10 L 62.73,6.68 L 64.02,8.31 L 66.66,12.03 L 70.07,17.50 L 71.14,19.43 L 73.16,23.84 L 73.62,24.90 L 74.38,26.85 L 75.16,29.25 L 75.49,30.56 L 76.22,32.60 L 76.39,33.04 L 76.70,33.63 L 77.05,34.00 L 77.15,34.00 L 77.53,33.83 L 77.75,33.73 L 78.32,33.38 L 80.42,31.89 L 81.16,31.30 L 82.46,30.53 L 82.74,30.39 L 83.19,30.23 L 83.59,30.25 L 83.72,30.39 L 83.83,30.97 L 83.85,31.30 L 83.76,32.18 L 83.63,33.13 L 82.91,35.55 L 82.50,36.78 L 81.43,39.17 L 81.15,39.73 L 80.58,40.70 L 79.71,41.86 L 79.04,42.59 L 77.47,44.53 L 75.51,47.25 L 74.93,48.17 L 73.98,49.28 L 73.55,49.71 L 72.88,49.85 L 72.59,49.80 L 72.22,48.98 L 72.07,48.45 L 72.00,46.66 L 72.00,45.47 L 71.71,42.80 L 71.52,41.42 L 70.88,38.45 L 70.53,36.94 L 69.58,33.78 L 69.08,32.19 L 67.88,28.96 L 66.62,25.73 L 63.50,19.52 L 62.68,18.02 L 60.95,15.23 L 58.25,11.44 L 57.41,10.37 L 56.24,8.76 L 55.74,8.02 L 55.18,6.87 L 54.97,6.33 L 54.91,5.34 L 55.25,3.74 L 55.50,2.99 L 56.14,1.81 L 56.30,1.56 L 56.60,1.22 L 57.00,1.00 L 57.20,1.00 M 78.90,8.36 L 79.24,8.69 L 79.83,9.69 L 79.97,9.95 L 80.35,10.91 L 80.55,11.46 L 81.02,12.87 L 82.47,17.90 L 82.68,18.68 L 83.01,19.98 L 83.16,20.59 L 83.38,21.58 L 83.57,22.51 L 83.62,23.73 L 83.58,24.28 L 83.14,25.15 L 81.88,26.62 L 81.27,27.28 L 80.14,28.30 L 79.88,28.51 L 79.48,28.81 L 79.08,28.99 L 79.00,28.99 L 78.71,28.42 L 78.56,28.04 L 78.16,26.85 L 77.94,26.18 L 77.47,24.52 L 77.24,23.65 L 76.75,21.69 L 76.48,20.54 L 76.03,18.63 L 75.83,17.72 L 75.52,16.23 L 75.38,15.53 L 75.22,14.39 L 75.15,13.86 L 75.13,12.99 L 75.14,12.19 L 75.59,11.08 L 76.92,9.57 L 77.38,9.16 L 78.01,8.64 L 78.30,8.44 L 78.71,8.35 Z" fill="rgba(70,183,181,1)"/>
<path d="M 55.08,80.50 L 55.11,80.69 L 54.99,81.42 L 54.89,81.85 L 54.49,83.00 L 53.62,85.15 L 53.01,86.54 L 51.92,89.49 L 51.40,90.98 L 50.52,94.08 L 49.68,97.20 L 48.65,103.66 L 48.24,106.89 L 48.10,113.20 L 48.13,114.75 L 48.35,117.74 L 48.96,122.00 L 49.16,122.98 L 49.35,124.43 L 49.42,125.09 L 49.32,126.11 L 49.24,126.58 L 48.81,127.42 L 47.75,128.75 L 47.17,129.37 L 46.05,130.34 L 45.79,130.54 L 45.36,130.82 L 44.90,131.00 L 44.79,131.00 L 44.51,130.55 L 44.36,130.27 L 44.02,129.34 L 43.84,128.83 L 43.48,127.55 L 43.31,126.87 L 42.97,125.35 L 42.82,124.63 L 42.59,122.52 L 42.49,121.38 L 42.35,118.63 L 42.29,117.20 L 42.24,114.07 L 42.23,112.47 L 42.26,109.20 L 42.29,107.57 L 42.41,104.41 L 42.47,102.87 L 42.66,100.07 L 42.77,98.74 L 43.03,96.56 L 43.50,94.25 L 43.67,93.71 L 43.81,93.00 L 43.83,92.70 L 43.46,92.40 L 43.19,92.29 L 42.10,92.32 L 41.76,92.34 L 40.92,92.43 L 39.37,92.62 L 34.50,93.24 L 38.11,89.52 L 38.61,89.01 L 39.98,87.88 L 40.71,87.31 L 42.40,86.17 L 43.26,85.61 L 45.04,84.59 L 47.61,83.34 L 49.23,82.67 L 52.14,81.44 L 52.78,81.17 L 53.79,80.74 L 54.74,80.34 L 54.93,80.26 M 91.76,4.54 L 91.92,4.58 L 92.20,4.85 L 92.33,5.02 L 92.58,5.59 L 92.71,5.91 L 92.97,6.82 L 93.10,7.31 L 93.41,8.60 L 93.95,11.00 L 94.13,11.80 L 94.41,13.68 L 94.54,14.66 L 94.72,16.84 L 94.88,19.07 L 94.91,23.98 L 94.88,26.44 L 94.54,31.18 L 94.43,32.32 L 94.15,34.42 L 93.62,37.22 L 93.44,38.01 L 93.13,39.48 L 92.99,40.18 L 92.80,41.39 L 92.71,41.95 L 92.64,42.75 L 92.71,43.37 L 92.76,43.43 L 93.15,43.46 L 93.38,43.46 L 94.04,43.39 L 96.66,42.83 L 97.63,42.56 L 99.29,42.28 L 99.65,42.23 L 100.20,42.22 L 100.66,42.32 L 100.79,42.46 L 100.70,42.96 L 100.60,43.24 L 100.11,43.99 L 99.83,44.38 L 99.04,45.27 L 98.61,45.73 L 97.61,46.68 L 96.58,47.64 L 94.27,49.39 L 93.71,49.79 L 92.63,50.42 L 91.20,51.07 L 90.18,51.40 L 87.49,52.47 L 83.75,54.16 L 82.72,54.67 L 81.10,55.32 L 80.76,55.44 L 80.30,55.55 L 80.11,55.58 L 80.00,55.49 L 80.00,55.41 L 80.20,54.88 L 80.33,54.56 L 80.74,53.64 L 82.51,49.98 L 83.60,47.84 L 85.23,43.50 L 85.97,41.29 L 86.95,36.56 L 87.36,34.12 L 87.75,28.66 L 87.81,27.24 L 87.83,24.19 L 87.72,19.29 L 87.65,17.79 L 87.56,15.31 L 87.52,14.15 L 87.47,12.28 L 87.46,11.41 L 87.48,10.05 L 87.49,9.42 L 87.59,8.47 L 87.65,8.03 L 87.85,7.38 L 87.95,7.08 L 88.25,6.63 L 89.63,5.51 L 90.30,5.06 L 91.22,4.59 L 91.42,4.52 Z" fill="rgba(103,183,72,1)"/>
<path d="M 98.25,96.33 L 98.42,96.39 L 99.26,96.66 L 99.74,96.81 L 101.07,97.20 L 106.10,98.59 L 107.49,98.97 L 109.52,99.61 L 110.43,99.92 L 111.68,100.56 L 112.24,100.89 L 112.97,101.67 L 113.76,103.18 L 114.05,103.95 L 114.32,105.27 L 114.35,105.56 L 114.33,106.00 L 114.16,106.36 L 114.07,106.41 L 113.42,106.40 L 113.03,106.38 L 111.88,106.25 L 111.26,106.16 L 109.78,105.92 L 109.01,105.78 L 107.33,105.45 L 106.26,105.22 L 104.42,104.80 L 103.55,104.59 L 102.09,104.18 L 101.41,103.97 L 100.29,103.55 L 99.76,103.33 L 98.94,102.87 L 98.19,102.39 L 97.41,101.20 L 97.00,98.88 L 97.00,98.37 L 97.08,97.58 L 97.13,97.22 L 97.31,96.72 L 97.42,96.50 L 97.70,96.30 M 83.32,81.01 L 84.16,81.25 L 84.63,81.41 L 85.82,81.93 L 88.01,83.00 L 89.09,83.55 L 91.54,84.53 L 92.81,84.99 L 95.58,85.79 L 97.00,86.17 L 99.99,86.78 L 101.51,87.06 L 104.65,87.47 L 107.80,87.83 L 114.15,87.92 L 115.70,87.89 L 118.72,87.65 L 123.00,87.02 L 124.01,86.82 L 125.48,86.62 L 126.15,86.55 L 127.16,86.67 L 127.64,86.77 L 128.50,87.27 L 129.93,88.52 L 132.37,90.91 L 129.49,92.00 L 128.51,92.38 L 126.32,92.99 L 125.20,93.27 L 122.74,93.71 L 121.47,93.90 L 118.77,94.16 L 117.40,94.26 L 114.50,94.34 L 111.55,94.38 L 105.20,93.92 L 95.29,92.41 L 92.07,91.76 L 93.04,95.13 L 93.25,95.88 L 93.56,97.14 L 93.70,97.72 L 93.83,98.62 L 93.88,99.03 L 93.83,99.58 L 93.78,99.81 L 93.54,100.02 L 93.40,100.09 L 92.96,99.96 L 92.71,99.85 L 92.07,99.39 L 91.72,99.11 L 90.85,98.32 L 90.39,97.88 L 89.30,96.75 L 88.88,96.30 L 87.90,94.99 L 87.41,94.29 L 86.39,92.62 L 83.72,87.25 L 83.37,86.36 L 82.83,84.90 L 82.58,84.21 L 82.27,83.12 L 82.15,82.63 L 82.10,81.91 L 82.11,81.59 L 82.34,81.21 L 82.49,81.06 L 83.01,81.00 M 131.46,54.58 L 131.96,54.71 L 132.77,54.96 L 133.15,55.09 L 133.69,55.38 L 133.92,55.53 L 134.19,55.88 L 134.29,56.06 L 134.28,56.49 L 134.24,56.72 L 133.94,57.27 L 133.76,57.55 L 133.18,58.24 L 132.85,58.60 L 131.97,59.45 L 130.32,60.95 L 128.66,62.41 L 125.09,65.10 L 123.28,66.41 L 119.47,68.74 L 117.55,69.85 L 113.62,71.76 L 107.69,74.09 L 100.91,76.31 L 104.15,79.66 L 107.39,83.00 L 104.45,83.00 L 103.64,83.00 L 101.45,82.48 L 100.35,82.17 L 98.38,81.25 L 97.95,81.01 L 96.80,80.29 L 96.19,79.91 L 94.79,78.99 L 90.55,76.00 L 85.84,72.50 L 92.99,71.31 L 94.95,70.98 L 99.12,70.12 L 100.10,69.90 L 101.82,69.49 L 103.82,68.93 L 104.55,68.70 L 106.23,68.05 L 107.10,67.70 L 108.97,66.87 L 110.87,65.99 L 114.90,63.87 L 116.89,62.77 L 120.55,60.51 L 121.40,59.96 L 122.93,58.89 L 124.86,57.39 L 125.65,56.71 L 126.94,55.74 L 127.55,55.31 L 128.59,54.78 L 129.09,54.56 L 130.02,54.42 M 33.50,52.55 L 34.64,52.75 L 36.49,53.22 L 37.38,53.48 L 39.10,54.25 L 40.00,54.70 L 42.10,56.03 L 42.67,56.40 L 43.97,57.31 L 46.21,58.91 L 46.84,59.37 L 47.87,60.18 L 48.35,60.57 L 49.09,61.25 L 49.42,61.57 L 49.87,62.12 L 50.06,62.39 L 50.21,62.82 L 50.25,63.03 L 50.11,63.35 L 50.00,63.50 L 49.57,63.72 L 49.32,63.82 L 48.60,63.94 L 47.19,64.02 L 46.62,64.02 L 45.20,64.15 L 44.45,64.23 L 42.73,64.49 L 40.96,64.78 L 36.93,65.69 L 34.90,66.18 L 30.93,67.33 L 29.98,67.63 L 28.21,68.24 L 25.86,69.15 L 25.12,69.47 L 23.28,70.43 L 22.32,70.94 L 20.22,72.18 L 19.17,72.83 L 17.07,74.20 L 14.20,76.23 L 13.40,76.83 L 12.01,77.84 L 11.33,78.32 L 10.15,79.09 L 9.59,79.45 L 8.59,80.00 L 8.11,80.24 L 7.25,80.58 L 6.42,80.86 L 5.02,80.84 L 4.34,80.74 L 3.02,80.03 L 2.71,79.84 L 2.38,79.43 L 2.27,79.22 L 2.37,78.69 L 2.48,78.39 L 3.06,77.59 L 4.52,75.97 L 5.28,75.17 L 7.02,73.60 L 7.93,72.82 L 9.94,71.29 L 12.02,69.76 L 16.89,66.89 L 19.44,65.49 L 25.14,62.93 L 34.42,59.54 L 34.85,59.40 L 35.35,59.11 L 35.53,58.95 L 35.48,58.47 L 35.38,58.18 L 34.70,57.32 L 32.92,55.39 L 29.50,51.84 M 45.19,36.23 L 45.52,36.38 L 46.22,36.88 L 46.94,37.43 L 48.46,39.13 L 49.20,40.05 L 50.54,42.20 L 52.01,45.50 L 52.36,46.60 L 53.31,49.13 L 53.55,49.74 L 54.02,50.87 L 54.66,52.25 L 55.07,53.06 L 55.47,54.07 L 55.52,54.27 L 55.48,54.53 L 55.42,54.64 L 55.13,54.70 L 54.95,54.70 L 54.37,54.57 L 54.04,54.48 L 53.14,54.15 L 52.64,53.96 L 51.37,53.43 L 50.68,53.15 L 49.00,52.43 L 46.80,51.49 L 42.67,50.11 L 40.61,49.50 L 36.34,48.72 L 35.23,48.56 L 32.90,48.34 L 31.71,48.24 L 29.15,48.13 L 27.83,48.10 L 24.97,48.10 L 20.26,48.22 L 18.78,48.28 L 16.32,48.37 L 15.16,48.40 L 13.30,48.44 L 12.44,48.46 L 11.07,48.43 L 10.44,48.41 L 9.48,48.32 L 9.04,48.26 L 8.38,48.08 L 8.07,47.97 L 7.61,47.69 L 6.53,46.40 L 6.11,45.77 L 5.68,44.65 L 5.61,44.40 L 5.59,44.01 L 5.76,43.65 L 5.86,43.59 L 6.68,43.38 L 7.17,43.27 L 8.63,42.98 L 9.42,42.83 L 11.34,42.50 L 14.50,41.99 L 16.51,41.69 L 21.18,41.40 L 23.57,41.30 L 28.51,41.39 L 30.95,41.49 L 35.49,41.95 L 36.56,42.09 L 38.53,42.43 L 41.12,43.03 L 44.24,43.93 L 43.61,39.97 L 43.49,39.23 L 43.38,38.10 L 43.35,37.59 L 43.41,36.88 L 43.46,36.57 L 43.71,36.21 L 44.30,36.00 L 44.57,36.00 M 24.41,29.09 L 25.32,29.19 L 25.81,29.26 L 26.98,29.47 L 27.60,29.60 L 29.04,29.93 L 31.54,30.55 L 32.39,30.77 L 33.80,31.15 L 34.46,31.33 L 35.53,31.66 L 36.53,31.99 L 37.75,32.66 L 38.26,33.03 L 38.86,34.03 L 39.54,36.25 L 39.74,37.05 L 39.84,38.06 L 39.82,38.27 L 39.63,38.54 L 39.51,38.66 L 39.06,38.75 L 38.79,38.77 L 38.01,38.69 L 37.57,38.63 L 36.40,38.38 L 35.76,38.24 L 34.13,37.82 L 33.26,37.60 L 31.11,37.03 L 29.59,36.62 L 27.12,35.70 L 25.98,35.22 L 24.27,34.14 L 23.51,33.58 L 22.57,32.34 L 22.00,30.31 L 22.00,29.88 L 22.47,29.36 L 22.79,29.15 L 24.04,29.08 Z" fill="rgba(240,85,33,1)"/>
<path d="M 16.03,109.75 L 16.04,109.58 L 16.27,108.71 L 16.41,108.20 L 16.88,106.79 L 17.13,106.04 L 17.77,104.28 L 18.86,101.44 L 19.61,99.52 L 21.48,95.64 L 22.47,93.71 L 24.72,89.93 L 25.88,88.08 L 28.38,84.58 L 32.31,79.86 L 35.69,76.22 L 31.85,75.07 L 30.79,74.76 L 29.13,74.02 L 28.78,73.85 L 28.30,73.52 L 28.00,73.12 L 28.00,73.01 L 28.32,72.71 L 28.52,72.55 L 29.18,72.20 L 32.03,71.11 L 32.81,70.88 L 34.35,70.58 L 35.13,70.46 L 36.86,70.41 L 37.77,70.41 L 39.93,70.58 L 43.96,71.12 L 51.88,72.33 L 47.69,75.10 L 45.36,76.64 L 41.20,80.03 L 39.20,81.79 L 35.63,85.70 L 33.90,87.73 L 30.80,92.29 L 26.58,99.98 L 26.08,101.01 L 25.19,102.97 L 24.76,103.92 L 24.05,105.59 L 23.73,106.37 L 23.28,107.57 L 23.00,108.61 L 23.00,108.92 L 22.34,109.60 L 20.75,110.37 L 19.89,110.60 L 18.56,110.85 L 17.95,110.95 L 17.09,110.92 L 16.71,110.87 L 16.27,110.55 L 16.10,110.36 M 14.25,89.29 L 13.63,89.18 L 12.66,88.70 L 12.00,87.87 L 12.00,87.68 L 12.44,86.93 L 12.72,86.50 L 13.60,85.38 L 14.09,84.79 L 15.28,83.45 L 15.89,82.77 L 17.24,81.37 L 17.92,80.68 L 19.27,79.36 L 19.93,78.72 L 21.15,77.64 L 21.73,77.15 L 22.66,76.45 L 23.58,76.00 L 23.93,76.00 L 25.27,76.29 L 27.51,77.00 L 30.15,78.01 L 26.85,80.75 L 25.94,81.51 L 23.67,83.65 L 20.67,86.75 L 19.88,87.64 L 18.45,89.01 L 18.13,89.29 L 17.62,89.66 L 17.15,89.86 L 16.97,89.83 L 16.03,89.64 L 15.50,89.54 M 93.25,64.59 L 92.25,64.46 L 90.43,64.17 L 89.57,64.03 L 88.13,63.73 L 87.47,63.58 L 86.57,63.31 L 86.00,62.97 L 86.00,62.87 L 86.31,62.48 L 86.51,62.26 L 87.16,61.67 L 89.95,59.53 L 92.19,57.98 L 96.43,54.15 L 98.51,52.12 L 102.33,47.46 L 104.17,45.04 L 107.44,39.71 L 111.60,31.16 L 112.10,29.93 L 112.91,28.18 L 113.31,27.40 L 114.07,26.37 L 114.47,25.92 L 115.39,25.37 L 117.19,24.83 L 118.10,24.64 L 119.56,24.40 L 119.87,24.36 L 120.32,24.31 L 120.63,24.33 L 120.65,24.35 L 120.51,24.93 L 120.41,25.30 L 120.06,26.45 L 119.86,27.09 L 119.36,28.66 L 118.47,31.32 L 117.79,33.34 L 116.08,37.31 L 115.18,39.28 L 113.06,43.13 L 111.95,45.03 L 109.43,48.70 L 105.24,53.98 L 100.93,58.90 L 104.97,60.11 L 106.08,60.44 L 107.82,61.18 L 108.18,61.36 L 108.68,61.68 L 109.00,62.06 L 109.00,62.17 L 108.66,62.46 L 108.45,62.62 L 107.75,62.99 L 104.75,64.17 L 103.95,64.42 L 102.37,64.76 L 101.57,64.90 L 99.85,65.02 L 98.96,65.06 L 96.91,64.96 L 95.82,64.89 M 110.50,58.78 L 109.67,58.49 L 108.30,57.97 L 108.00,57.85 L 107.56,57.66 L 107.21,57.49 L 107.17,57.46 L 107.55,56.95 L 107.81,56.64 L 108.70,55.67 L 109.20,55.14 L 110.48,53.84 L 112.71,51.64 L 113.86,50.53 L 115.70,48.89 L 116.56,48.16 L 117.99,47.17 L 118.67,46.75 L 119.90,46.28 L 121.75,46.02 L 122.64,46.01 L 124.05,46.29 L 124.34,46.38 L 124.74,46.60 L 125.00,46.97 L 125.00,47.11 L 124.55,47.82 L 124.25,48.24 L 123.31,49.41 L 122.79,50.04 L 121.48,51.51 L 119.25,53.89 L 118.56,54.60 L 117.42,55.77 L 116.88,56.32 L 115.97,57.19 L 115.55,57.59 L 114.83,58.20 L 114.48,58.47 L 113.89,58.84 L 113.32,59.16 L 112.30,59.24 L 111.78,59.21 Z" fill="rgba(246,163,38,1)"/>
</g>
</svg>